<?xml version="1.0" standalone="no"?>
<!DOCTYPE svg PUBLIC "-//W3C//DTD SVG 20010904//EN"
 "http://www.w3.org/TR/2001/REC-SVG-20010904/DTD/svg10.dtd">
<svg version="1.0" xmlns="http://www.w3.org/2000/svg"
 width="2074.000000pt" height="2056.000000pt" viewBox="0 0 2074.000000 2056.000000"
 preserveAspectRatio="xMidYMid meet">

<g transform="translate(0.000000,2056.000000) scale(0.100000,-0.100000)"
fill="#FFFFFF" stroke="none">
<path d="M13375 16575 c-11 -2 -74 -9 -140 -15 -211 -21 -435 -59 -605 -104
-214 -56 -270 -72 -390 -112 -74 -24 -149 -51 -167 -59 -17 -8 -34 -15 -38
-15 -7 0 -105 -43 -148 -65 -16 -8 -33 -15 -39 -15 -6 0 -29 -9 -52 -19 -23
-11 -57 -26 -76 -35 -19 -9 -42 -20 -50 -25 -8 -5 -33 -18 -55 -29 -275 -137
-648 -374 -883 -561 -46 -36 -95 -73 -108 -82 -13 -8 -41 -31 -61 -50 -20 -19
-49 -43 -64 -54 -101 -77 -522 -487 -654 -637 -76 -87 -260 -311 -370 -450
-44 -56 -182 -240 -263 -353 -59 -83 -364 -542 -371 -560 -2 -5 -39 -70 -82
-142 -44 -73 -79 -135 -79 -138 0 -3 -13 -26 -29 -52 -43 -72 -161 -296 -256
-490 -81 -164 -111 -208 -100 -145 3 15 16 104 30 197 13 94 27 186 30 205 3
19 15 94 26 165 27 173 47 294 64 385 8 41 22 120 30 175 32 204 37 232 50
305 7 41 23 136 35 210 12 74 27 167 35 205 17 89 60 321 81 445 9 52 27 156
41 230 13 74 30 171 38 215 7 44 20 118 29 165 49 275 78 445 87 520 13 97 7
303 -9 340 -6 14 -13 37 -16 51 -10 46 -84 145 -141 188 -184 139 -549 200
-1070 180 -166 -7 -433 -32 -520 -49 -27 -5 -90 -16 -140 -25 -192 -35 -463
-109 -555 -152 -19 -9 -51 -24 -70 -32 -93 -43 -261 -160 -334 -235 -105 -107
-199 -271 -276 -481 -18 -49 -38 -103 -45 -120 -8 -16 -21 -48 -30 -70 -9 -22
-20 -49 -25 -60 -5 -11 -18 -43 -29 -72 -22 -56 -163 -343 -226 -458 -21 -38
-51 -95 -68 -125 -16 -30 -36 -62 -43 -71 -8 -8 -14 -19 -14 -23 0 -4 -17 -33
-37 -64 -20 -31 -41 -66 -48 -77 -51 -91 -331 -477 -458 -631 -183 -222 -535
-593 -767 -810 -136 -127 -263 -240 -295 -265 -16 -13 -66 -55 -110 -94 -145
-127 -307 -254 -660 -516 -71 -53 -152 -111 -180 -131 -88 -60 -267 -183 -345
-235 -88 -59 -418 -266 -440 -276 -8 -4 -44 -25 -79 -47 -34 -22 -65 -40 -67
-40 -2 0 -75 -42 -162 -93 -205 -122 -291 -171 -437 -247 -66 -35 -124 -66
-130 -70 -26 -19 -669 -345 -765 -388 -111 -50 -227 -103 -250 -115 l-25 -13
-3 -901 -2 -901 32 8 c56 13 404 133 593 205 39 14 84 31 100 36 17 5 39 13
50 18 11 5 74 31 140 57 166 65 397 162 540 227 66 30 143 64 170 77 85 38
279 130 300 142 11 6 92 47 180 92 134 66 401 210 595 318 25 14 86 48 135 76
50 27 177 102 283 166 106 64 195 116 197 116 3 0 348 227 443 292 269 184
711 519 856 648 17 15 56 49 86 75 77 66 316 302 358 353 34 41 62 55 62 30 0
-7 -7 -51 -16 -98 -9 -47 -20 -114 -24 -150 -9 -66 -30 -209 -49 -335 -5 -38
-17 -124 -25 -190 -9 -66 -29 -217 -45 -335 -44 -322 -58 -431 -75 -585 -9
-77 -21 -176 -26 -220 -59 -452 -94 -755 -165 -1440 -8 -77 -17 -151 -20 -165
-2 -14 -14 -128 -25 -255 -12 -126 -27 -286 -35 -355 -8 -69 -21 -190 -30
-270 -8 -80 -20 -188 -26 -240 -5 -52 -14 -140 -19 -195 -11 -123 -55 -567
-101 -1015 -10 -99 -24 -274 -39 -495 -25 -366 0 -615 77 -765 7 -14 13 -29
13 -33 0 -20 88 -135 146 -191 186 -180 450 -250 988 -260 685 -14 1293 142
1593 409 45 40 130 145 170 210 39 63 103 235 127 340 9 39 21 88 26 110 14
62 38 192 50 280 30 210 59 382 85 515 9 47 27 148 41 225 13 77 31 169 38
205 8 36 22 101 31 145 32 153 130 564 143 595 3 8 11 40 18 70 7 30 20 78 28
105 20 65 38 126 75 255 36 128 56 195 111 370 23 74 48 153 55 175 6 22 17
53 23 68 7 16 12 35 12 43 0 8 5 22 10 32 6 9 21 51 34 92 46 143 144 413 182
497 8 17 14 38 14 46 0 9 4 18 9 21 5 3 12 18 15 33 9 37 173 444 262 653 9
19 19 44 24 55 14 34 66 146 108 235 22 47 52 112 67 145 115 254 359 737 449
888 25 43 46 81 46 83 0 21 341 591 478 799 134 203 352 515 406 580 23 28 60
75 81 105 48 67 221 276 319 384 107 119 372 385 451 453 264 227 550 400 770
466 146 45 394 48 490 7 97 -42 125 -57 160 -84 153 -120 225 -314 225 -609 0
-203 -45 -567 -105 -847 -8 -36 -27 -135 -44 -220 -55 -290 -65 -339 -91 -450
-11 -52 -25 -115 -30 -140 -12 -67 -47 -235 -65 -315 -19 -87 -22 -100 -79
-365 -25 -118 -52 -242 -60 -275 -31 -130 -88 -382 -96 -425 -9 -46 -27 -124
-55 -245 -14 -62 -50 -223 -90 -410 -7 -33 -23 -103 -35 -155 -11 -52 -25
-119 -30 -148 -5 -29 -12 -57 -15 -62 -3 -6 -10 -31 -15 -58 -11 -58 -34 -174
-55 -267 -16 -74 -33 -155 -60 -295 -10 -47 -23 -116 -31 -155 -13 -64 -43
-236 -79 -455 -97 -591 -97 -1268 0 -1720 51 -241 62 -280 127 -475 44 -130
49 -144 115 -284 104 -223 307 -513 483 -691 203 -204 520 -415 765 -509 33
-12 69 -27 80 -32 63 -29 283 -91 385 -109 211 -38 357 -52 585 -55 230 -3
299 0 520 24 237 26 584 112 810 201 198 77 401 175 540 258 82 50 304 198
365 244 57 43 235 182 240 188 3 3 57 50 120 104 136 118 386 369 514 516 50
58 93 107 97 110 16 13 142 165 271 327 214 269 235 295 340 437 53 72 110
147 127 167 17 20 31 41 31 47 0 6 4 12 8 14 5 2 123 156 262 343 140 187 256
342 260 345 3 3 34 43 69 88 34 46 70 91 80 101 9 9 30 35 46 56 16 22 43 56
60 76 16 19 44 53 60 75 17 21 48 59 70 84 23 25 65 74 95 110 50 60 144 166
265 300 213 236 700 690 924 860 25 19 71 54 101 78 30 23 67 52 83 63 l27 21
0 923 0 923 -42 -16 c-44 -17 -384 -185 -448 -221 -83 -47 -273 -151 -276
-151 -4 0 -281 -167 -314 -190 -14 -10 -90 -61 -170 -113 -258 -171 -362 -245
-670 -481 -436 -333 -1092 -963 -1630 -1566 -47 -52 -87 -97 -90 -100 -6 -5
-318 -361 -521 -594 -339 -389 -659 -642 -904 -715 -129 -38 -293 -33 -383 13
-136 69 -233 244 -263 476 -26 199 -2 570 56 865 9 44 22 116 30 160 22 120
41 212 59 290 9 39 23 104 31 145 16 84 70 341 110 525 14 66 32 153 40 193 8
41 17 77 20 81 2 4 9 32 14 62 11 56 26 129 56 259 10 41 24 107 32 145 43
207 66 315 87 410 9 39 30 131 46 205 16 74 36 164 45 200 17 76 72 336 90
430 7 36 22 110 34 165 12 55 28 132 36 170 24 112 133 664 145 730 5 33 17
96 26 140 26 131 79 423 103 570 9 53 32 187 61 355 5 30 15 109 21 175 6 66
15 154 19 195 15 137 4 569 -20 735 -31 223 -52 332 -78 416 -6 19 -21 68 -32
109 -21 73 -60 185 -86 245 -7 17 -22 53 -34 80 -11 28 -27 61 -34 75 -8 14
-29 54 -48 90 -18 36 -36 67 -40 68 -5 2 -8 8 -8 14 0 6 -13 27 -30 48 -16 21
-30 41 -30 45 0 4 -28 41 -62 83 -195 241 -421 421 -696 555 -145 71 -214 98
-372 145 -344 102 -499 124 -915 127 -170 2 -319 2 -330 0z"/>
</g>
</svg>
